<svg width="44" height="44" viewBox="0 0 44 44" fill="none" xmlns="http://www.w3.org/2000/svg">
<path d="M39.1875 0.125H4.8125C3.5693 0.125 2.37701 0.61886 1.49794 1.49794C0.61886 2.37701 0.125 3.5693 0.125 4.8125L0.125 39.1875C0.125 40.4307 0.61886 41.623 1.49794 42.5021C2.37701 43.3811 3.5693 43.875 4.8125 43.875H18.2158V29.001H12.0635V22H18.2158V16.6641C18.2158 10.5947 21.8291 7.24219 27.3633 7.24219C30.0137 7.24219 32.7852 7.71484 32.7852 7.71484V13.6719H29.7314C26.7227 13.6719 25.7842 15.5391 25.7842 17.4541V22H32.501L31.4268 29.001H25.7842V43.875H39.1875C40.4307 43.875 41.623 43.3811 42.5021 42.5021C43.3811 41.623 43.875 40.4307 43.875 39.1875V4.8125C43.875 3.5693 43.3811 2.37701 42.5021 1.49794C41.623 0.61886 40.4307 0.125 39.1875 0.125Z" fill="#FCDB00"/>
</svg>
