<svg width="44" height="44" viewBox="0 0 44 44" fill="none" xmlns="http://www.w3.org/2000/svg">
<path d="M39.1875 0.125H4.8125C2.22461 0.125 0.125 2.22461 0.125 4.8125V39.1875C0.125 41.7754 2.22461 43.875 4.8125 43.875H39.1875C41.7754 43.875 43.875 41.7754 43.875 39.1875V4.8125C43.875 2.22461 41.7754 0.125 39.1875 0.125ZM16.1406 31.7656C10.7402 31.7656 6.375 27.4004 6.375 22C6.375 16.5996 10.7402 12.2344 16.1406 12.2344C18.7773 12.2344 20.9746 13.1914 22.6836 14.793L20.0371 17.3418C19.3145 16.6484 18.0547 15.8379 16.1504 15.8379C12.8203 15.8379 10.1055 18.5918 10.1055 22.0098C10.1055 25.418 12.8203 28.1816 16.1504 28.1816C20.0176 28.1816 21.4629 25.3984 21.6973 23.9727H16.1406V20.6133H25.3594C25.457 21.1016 25.5156 21.5996 25.5156 22.2344C25.5156 27.8105 21.7754 31.7656 16.1406 31.7656ZM37.625 23.7773H34.793V26.6094H31.9414V23.7773H29.1094V20.9258H31.9414V18.0938H34.793V20.9258H37.625V23.7773Z" fill="#FCDB00"/>
</svg>
