<svg width="44" height="44" viewBox="0 0 44 44" fill="none" xmlns="http://www.w3.org/2000/svg">
<path d="M43.875 4.8125V39.1875C43.875 41.7754 41.7754 43.875 39.1875 43.875H15.2031C16.1602 42.2734 17.3906 39.9688 17.8789 38.084C18.1719 36.9609 19.373 32.3809 19.373 32.3809C20.1543 33.875 22.4395 35.1348 24.8711 35.1348C32.1074 35.1348 37.3125 28.4844 37.3125 20.2227C37.3125 12.3027 30.8477 6.375 22.5273 6.375C12.1758 6.375 6.6875 13.3184 6.6875 20.8867C6.6875 24.4023 8.5625 28.7773 11.5508 30.1738C12.0098 30.3887 12.2441 30.291 12.3516 29.8516C12.4297 29.5195 12.8398 27.8887 13.0156 27.1367C13.0742 26.8926 13.0449 26.6875 12.8496 26.4531C11.8633 25.252 11.0625 23.0449 11.0625 20.9844C11.0625 15.6914 15.0664 10.5742 21.8926 10.5742C27.7812 10.5742 31.9121 14.5879 31.9121 20.3301C31.9121 26.8145 28.6406 31.3066 24.373 31.3066C22.0195 31.3066 20.2617 29.3633 20.8184 26.9707C21.4922 24.1191 22.8008 21.043 22.8008 18.9824C22.8008 13.8066 15.4277 14.5195 15.4277 21.4238C15.4277 23.543 16.1406 24.9883 16.1406 24.9883C13.0742 37.957 12.6152 38.123 13.25 43.7969L13.4648 43.875H4.8125C2.22461 43.875 0.125 41.7754 0.125 39.1875V4.8125C0.125 2.22461 2.22461 0.125 4.8125 0.125H39.1875C41.7754 0.125 43.875 2.22461 43.875 4.8125Z" fill="#FCDB00"/>
</svg>
