<svg width="44" height="44" viewBox="0 0 44 44" fill="none" xmlns="http://www.w3.org/2000/svg">
<path d="M39.0625 0H4.6875C2.09961 0 0 2.09961 0 4.6875V39.0625C0 41.6504 2.09961 43.75 4.6875 43.75H39.0625C41.6504 43.75 43.75 41.6504 43.75 39.0625V4.6875C43.75 2.09961 41.6504 0 39.0625 0ZM34.2871 15.5078C34.3066 15.7812 34.3066 16.0645 34.3066 16.3379C34.3066 24.8047 27.8613 34.5605 16.084 34.5605C12.4512 34.5605 9.08203 33.5059 6.25 31.6895C6.76758 31.748 7.26563 31.7676 7.79297 31.7676C10.791 31.7676 13.5449 30.752 15.7422 29.0332C12.9297 28.9746 10.5664 27.1289 9.75586 24.5898C10.7422 24.7363 11.6309 24.7363 12.6465 24.4727C9.7168 23.877 7.51953 21.2988 7.51953 18.1836V18.1055C8.36914 18.584 9.36523 18.877 10.4102 18.916C9.53167 18.3317 8.81151 17.5389 8.31394 16.6085C7.81637 15.6782 7.55687 14.6391 7.55859 13.584C7.55859 12.3926 7.87109 11.2988 8.42773 10.3516C11.582 14.2383 16.3184 16.7773 21.6309 17.0508C20.7227 12.7051 23.9746 9.17969 27.8809 9.17969C29.7266 9.17969 31.3867 9.95117 32.5586 11.2012C34.0039 10.9277 35.3906 10.3906 36.6211 9.6582C36.1426 11.1426 35.1367 12.3926 33.8086 13.1836C35.0977 13.0469 36.3477 12.6855 37.5 12.1875C36.6309 13.4668 35.5371 14.5996 34.2871 15.5078Z" fill="#FCDB00"/>
</svg>
