<svg width="27" height="31" viewBox="0 0 27 31" fill="none" xmlns="http://www.w3.org/2000/svg">
<path d="M22.1611 16.3682C22.1475 13.8594 23.2822 11.9658 25.5791 10.5713C24.2939 8.73242 22.3525 7.7207 19.7891 7.52246C17.3623 7.33105 14.71 8.9375 13.7393 8.9375C12.7139 8.9375 10.3623 7.59082 8.5166 7.59082C4.70215 7.65234 0.648438 10.6328 0.648438 16.6963C0.648438 18.4873 0.976562 20.3376 1.63281 22.2471C2.50781 24.7559 5.66602 30.9082 8.96094 30.8057C10.6836 30.7646 11.9004 29.582 14.1426 29.582C16.3164 29.582 17.4443 30.8057 19.3652 30.8057C22.6875 30.7578 25.5449 25.166 26.3789 22.6504C21.9219 20.5518 22.1611 16.498 22.1611 16.3682ZM18.292 5.14355C20.1582 2.92871 19.9873 0.912109 19.9326 0.1875C18.2852 0.283203 16.3779 1.30859 15.291 2.57324C14.0947 3.92676 13.3906 5.60156 13.541 7.48828C15.3252 7.625 16.9521 6.70898 18.292 5.14355Z" fill="black"/>
</svg>
