<svg width="27" height="31" viewBox="0 0 27 31" fill="none" xmlns="http://www.w3.org/2000/svg">
<path d="M4.3125 11.9795V19.8955C4.3125 20.9482 3.48535 21.7891 2.43262 21.7891C1.38672 21.7891 0.375 20.9414 0.375 19.8955V11.9795C0.375 10.9473 1.38672 10.0996 2.43262 10.0996C3.46484 10.0996 4.3125 10.9473 4.3125 11.9795ZM5.05078 22.7119C5.05078 23.833 5.95312 24.7353 7.07422 24.7353H8.43457L8.45508 28.9121C8.45508 31.4346 12.2285 31.4141 12.2285 28.9121V24.7353H14.7715V28.9121C14.7715 31.4209 18.5654 31.4277 18.5654 28.9121V24.7353H19.9463C21.0537 24.7353 21.9561 23.833 21.9561 22.7119V10.4482H5.05078V22.7119ZM22.0039 9.78514H4.97559C4.97559 6.85936 6.72559 4.31639 9.32324 2.99022L8.01758 0.577135C7.82617 0.242175 8.31152 0.0302605 8.47559 0.31737L9.80176 2.75096C12.1875 1.69139 14.9287 1.74608 17.2051 2.75096L18.5244 0.324206C18.6953 0.0302604 19.1738 0.24901 18.9824 0.583971L17.6768 2.99022C20.2539 4.31639 22.0039 6.85936 22.0039 9.78514ZM10.335 5.9912C10.335 5.60155 10.0205 5.27342 9.61719 5.27342C9.22754 5.27342 8.91992 5.60155 8.91992 5.9912C8.91992 6.38085 9.23438 6.70897 9.61719 6.70897C10.0205 6.70897 10.335 6.38085 10.335 5.9912ZM18.0869 5.9912C18.0869 5.60155 17.7725 5.27342 17.3896 5.27342C16.9863 5.27342 16.6719 5.60155 16.6719 5.9912C16.6719 6.38085 16.9863 6.70897 17.3896 6.70897C17.7725 6.70897 18.0869 6.38085 18.0869 5.9912ZM24.5674 10.0996C23.5352 10.0996 22.6875 10.9267 22.6875 11.9795V19.8955C22.6875 20.9482 23.5352 21.7891 24.5674 21.7891C25.6201 21.7891 26.625 20.9414 26.625 19.8955V11.9795C26.625 10.9267 25.6133 10.0996 24.5674 10.0996Z" fill="black"/>
</svg>
